<mxfile host="Electron" agent="Mozilla/5.0 (Macintosh; Intel Mac OS X 10_15_7) AppleWebKit/537.36 (KHTML, like Gecko) draw.io/25.0.2 Chrome/128.0.6613.186 Electron/32.2.5 Safari/537.36" version="25.0.2">
  <diagram name="第 1 页" id="sEeqxLD757yaxfodDOMi">
    <mxGraphModel dx="804" dy="637" grid="0" gridSize="10" guides="1" tooltips="1" connect="1" arrows="1" fold="1" page="0" pageScale="1" pageWidth="827" pageHeight="1169" math="0" shadow="0">
      <root>
        <mxCell id="0" />
        <mxCell id="1" parent="0" />
        <mxCell id="zYRMrOJOpIadiwbKL0Jr-1" value="" style="shape=image;verticalLabelPosition=bottom;labelBackgroundColor=default;verticalAlign=top;aspect=fixed;imageAspect=0;image=data:image/png,iVBORw0KGgoAAAANSUhEUgAAAlgAAAC9CAYAAABvcAPEAAAABGdBTUEAALGPC/xhBQAAACBjSFJNAAB6JgAAgIQAAPoAAACA6AAAdTAAAOpgAAA6mAAAF3CculE8AAAABmJLR0QA/wD/AP+gvaeTAAAAB3RJTUUH6AcQADYhEY856wAAYmlJREFUeNrtvXl8HFeVL/49t6o3SZb3LZuNo1hdasVZTEgggYiwhbAHEtb5scwMMI/lPWBmgFlYZ9hmYFjmMcMwMPOYBMKSOCRhS0hiCEs2E8dxq1uK4jjBSRzvtqRWd1fVPb8/uqp1VerW2lXdku+XT+OO3bXdW/fc7/2ec88haGhoaMwAXV1diVgsVmzCpb+Sy+X+j+4BDQ2NhQShm0BDQ0NDQ0NDo7EwdRNoaGjMemUmBAzDCPUatm3rhtbQ0NAES0ND4+SBYRiIxWKaYGloaGjUW4jqJtDQ0NDQ0NDQ0ARLQ0NDQ0NDQ0MTLA0NDQ0NDQ0NTbA0NDQ0NDQ0NDQ0wdLQ0NDQ0NDQ0ARLQ0NDQ0NDQ0MTLA0NDQ0NDQ0NDU2wNDQ0NDQ0NDQ0wdLQ0NDQ0NDQ0ARLQ0NDQ0NDQ0NDEywNDQ0NDQ0NDU2wNDQ0NDQ0NDQ0wdLQ0NDQ0NDQ0ARLQ0NDQ0NDQ0NDEywNDQ0NDQ0NDU2wNDQ0NDQ0NDQ0wdLQ0NDQ0NDQ0NAES0NDQ0NDQ0NDEywNDQ0NDQ0NDU2wNDQ0NDQ0NDQ0NMHS0NDQ0NDQ0NAES0NDQ0NDQ0NDEywNDQ0NDQ0NDQ1NsDQ0NDQ0NDQ0NMHS0NDQ0NDQ0NAES0NDQ0NDQ0NDEywNDQ0NDQ0NDQ1NsDQ0NDQ0NDQ0NMHS0NDQ0NDQ0NAES0NDQ0NDQ0NDQxMsDQ0NDQ0NDQ1NsDQ0NDQ0NDQ0FhVM3QQaGhoaGhoarYRMJtMhhIiVy+UUMye9vy4lEonCQw89dAwAa4KloaGhoaGxQMAMwnYY2AgT7TBBIAgQXEishgvAAeAQtf4EvwBA3d3dm4UQFwI4n4g2MfMGAGdIKZdJKSHEREeb4ziwLAsAigDGABwkokcBPAxgkIgeJqKHd+/evafZJEwTLA2NqSE2b968XgixjoiWE1EMQAczq6sqCCFGAZSllCeI6AnXdfcPDg4e0s2nobFAiNXDSGAN2jGGFM5LxkFsgtgAeaE0cUgMk4QkB/FimYdRQgdGABRblWxt3LgxmUqllruum5rnqU40yp5lMpl1zPwqZn4lgGcDWD5ObmfVjEnvs5yZNwN4iXoOy7KOAPgdEf3KcZxbBgcH85GzRz2sNDSATZs2LU0kEhcw8wVElAZwBhGdwcynAYjP8bQlAHuJaDcz5wDsNgzj/t27dz+yENuoq6srEYvFigAQi8UQi8VCvV6hUPC/fiWXy/2f+Zxry5Yt7a7rXiil7CaiLillFxF1EVGSmdu9Pk56q+IT3p8jzHxQCDEE4GFmHnJdNz84OLhHj5hFRKwYKRSwDHaiDQYn4XISwowDbIJgYDxWmQG4MMhG2bFhUBGSijBLBbRhGMBIKxCtzZs3n2oYxvsBvAJAuoHz/HFmvk0I8Zn+/v4HZkmqOlzXfRsRXQ3gYtSJ/yYiCCFARCCiKfqMJ/wppZwJORsC8D0hxHey2eyQJliLCN3d3UsGBgYKAFzdGs2HZVnrmfkVRHQxET2LmbsjHA9PAvg1gLsA/CSXyz2mCVZjCVZfX5+5f//+y4joBQCeB+CZaJxi/wSAOwFsZ+bb8/n8Xj2iFiSxMjGCFYgllsCRHZBmG4hTECIJGHFIjoHYVOwCg6lCsNgtg2UJksYgnFG4YhRmaQRtOEqEYhPt2ssAXAtgaYiXcZn5f+Xz+f+Yic0wTfODRPSXAFbUIlPqZypSNRP4REtKWf3UIF7MzHcS0RdzudzPEKIbkXp6et7PzKlmvRBCiH/JZrPlVhp4mUzmcinlOY0byExE9DYA78vlcre10rP29fWZTz/99Ieiup6U8mcDAwO7mvGsvb29Z7queyWAVwO4CFPsog2upIJxAPUMATNP+kyzumJmvp+IfsTMP2jlyXohEKyenp4LpZRvIqLXA1g7Vf+qq2S1P4OrY78f6/UfgN8S0beJ6IfZbHZEU5cFQK6eRBsSWIl4vBOGsQRSdIC4HUxtgEiCRAJEMUiYip2QYLgA2xCyBJZFSDEGIUch5AikOwxDnECyeJQIJ6J+pp6envOY+XeoKLENIy0qeXFdV/lP+cKBgYE7pxqLzPwdAJvVcWcYBgzDaOi9TaV0+UTLcZxa43gXgL/J5XI/CeP6JjNfBuBVTXzX7wNwRysNPinllwF0N4zFjhvxNwFoKYJ18ODB8wF8LqrrmaZ5c8RkOc7MV0sp3++67gX1JlrfGBmGEdqgd123aqSklMot0AUALiCiz1qWdTMRfbG/v/8uPQ3OGIZlWVcx80eY+Zxg//lGXZ1wZtvHU6yMCcAlzHwJM3/VsqxrbNv+x6GhoX26W1qUXB3EEnQkV8J1l4HFUjjUCYElQKwdoHaAkpCUhKAYABOgCsESLCHhgtmGK0oQPAbiAkCjcDgFEglIN4bjCZOPlQxahqPRKnL8Tz65isfjME0zFBtWKpU8/ib+GcDWOkra/2HmLwCI+WMwFouFck/Tzb0+oYvFYlWi5TiO/5MtAG7p6em5U0r57nw+P9hQAYmZtzX1ZWe+opUGX3d395ZGkqvAs1552mmnpVrpeaWUfRFebiibzfZHcaEtW7assSzr76WUe5n5fzwSUx10pmkikUgglUohmUxWDVKYKyp/kCeTSbS1tSGRSASvKQC8ipl/bVnWPZlM5nI9HU5tP9Pp9Fsty8oD+B4RVVVnIQTi8TiSySRSqVS1f+e6avbJdywWQyKRQDKZrNV/HQDeHYvFHu7p6fnndDq9UndRi5ErRjtiyVWQ7grAWAnDXAlhrAJiqwGxBjDWAMZaCHMtYK4DGesgjHWAsR7SWA+Y6yDMtRBiLYTh/V6shmGsAsxV4PhKkLEClFjJx8aDtyNYSJ4B4AXeIjY0ImMYhnru8zOZzLnBoZJOp78K4F98cmWaJlKpVOTkqt44jsfjk+6HmZ9PRA9alvVhNDA/qGkYxs1SSqfSDibi8XgkD1osFv1V4BUA/rJVBqAQ4nX+92Qy2TDWb9s2AHR2dna+AsAPWsjm9PmkI5lMNpxgSClRLBZ9YnNTBAR5iWEYH7Vt+wP+ai64kjEMozVkF+VeXNeF4ziqMvIsKeXPenp6biaiD0YVlLlQ0NPTk2HmfwPw3GAf+0QqqpWxr2w5juO7UJLM/CEi+vN0Ov2X+Xz+m7rHWoBcPYokjiVXIe4uAxvLweYKsLEMwDKw6ARoCSA6AFFxEwIJgExI+AZDAuxAogyiMUiMVVyDlAQoDsgY2BUwQCDJsJOSDxddWhm+u5CZL1LtSpgwTbOqAEkpLwWw0x8WlmV9E8A7/DESj8dbxt4Gx288HkcsFkO5XK6OWwCfsyzrBbFY7C27du06MG8+kc1mjwDYDkCVzSKZXDxY3d3dz2ihtn+d3wHBALy5ftRVrpTyzS3DrPr6TACX+Mw+DPVGcYVBShmme1Ck0+m3CSEGmPmjPrnyB5KvUrXiYPfHg6+MxGKxal8w8yuklLt7eno+6fXXyQ6jp6fnE8z8gE+ufPeDr1SFTa7qka1EIoFEIqFev5OI/sOyrBu7urpW665rqnIlsAYrEJNLIY1lYHM5YCwHixUQ5gpArALM1SBjNYSxBiTWgs11YGM9yFxX+RjrAGMdhLEWMNeCjNVgsbqigNFKCLECMFaAaTk4vgwxdylSWMoPIxEBwVqvqjRhq0DKXFGNr0qn019WyVUymWxZe6uOXX/cKs/0Itu27+3p6cnMu628P7epaktUUp3ykC9rhca2LKsXgOWz9EYbYO/75ZlMZkUrPO+BAwe2AlgS5qpHIe1H1q1b95swrpHJZM6xLOseIvovAOvVgeNLwWEHUzbyXfHdUEqfJJj5YwcOHNjuuQJOSmQymRXpdPoWZv44FPeDT0pbhSj77kPlnXtVLBbblU6n+zTVaRqWwk0sgTQ6wWIpBC0FiWUQYjlcYyWEuRIwKiSLjTUegVoLSq4CUiuAthVAchXIXAsYa0GeaxDGKkBU3IJsLK+c01gKpqWQRifceCfWhbqjz0dHk9r1VI9cvZeI3q/a3oVic/1xm0qlVJu7gZl/093dffG8CZaU8kYAMkqCpU7oRPTSFpncXlfr/hr8vHFmvqo1VnXcF9bz1lCwfrp9+/aGS6SWZf2FlPJuVLbhVxWrwGBZcBBCTFJEmPliKeUDmUzmlSfb7GhZVi8z30dEl6tGPB6Pt6Qh94mW8g6uI6Kfp9Pp12quE7l6ZaKIJZByCQxaAjY7wcZSQCyDayyHEBUli4yVFdIUXwnubAfWmKC1ArTW8D6V71iaAhIrAGM1IFaBjZWQ5gqAlgOiEjhP1AkhlsAwOuAmO3g/2sOevqJeCHpY0dPT81wi+hf/L5LJZOQqcqMQ2BywTAjxs3Q6/Zx5EayBgYEnAdwTJcEKTOrP37p1a1sLEI6r/Mmt0S+IOtkz85tbw/BUCNZcdlXNUr1qePzVpk2blqbT6R8C+Do8d6CvZrRCMGUj35uAmrVCSnlDT0/PO04m8QrAncy8qQ55aUmoJNBDgoi+n06n36lpT6RYAifeDsNohxQdEOgAiSUg0QmipWCxDGQsB8RKoL0dtMoArREQawRonQFaL0DrvO9rBMRaAVolQB0pkLkCJCrKFRkVYkW0BMLogBQdcLkdhmxDe+gEK/J32/vzVAD/DcBciMpVrefyY7P8d4eIfuZ5t+ZGsDxs8ybdZqhYqUKh8PymWvBMpgdAj0+wwoAy8V9iWdaGZj7v1q1bY0R0SZjPq6hX5XK5/ItGnbe3t9dKJpN/8BXHVlczQpioDWb+z3Q6/d6TZIJ8IYBVQCX/1kLrZ3/Hqt93RPQNy7Leo3lPJOqVwBjaIDgFIdpA1AYy2sGiA0xLPKJVcRdSewK0QoBWCtBqA1hjgNYYEGvHP1hrAKuNCsFaKYAlccBYBhJLwaITbCwBiyWQ1AGmdgjRBmm0wUymmBFffO3Lm/yFj2maC9proCKQ568TwC29vb1r50ywhBDbakyMUREsAGhqugbXda+qQYTCel5i5jc283kLhcJWeH77COKvtg8NDTVkJ006nd7quu6v/EHtu9IWy8CexURNRPS1dDr9IZwk8I3eQiTRvhKp3PtXvKzbCwlijp/mddg+JCASSZCZhBQpkEiBqA2MdpBorxIiTqaAZQK0XAArBcRKAWOtgPCVq3UGaJ2AsUZArBIQK0Tl90sJaIuDaAmIOkCiHSTawNQGohSkSEFwEjYnAaQWy1gMjkEhRMvEQTbS3ihcYIOU8nuYZQqH6tHZbHbIsqyHAJztum4kjeXv1PMI3RVNfmEm7B4My8gSEZgZRPRmRJjgs8bKo88fJGE8b4CkN8Q9mE6nL/VcjZ0+4YgqrUirTdTlctl/j/4pk8k8ls1mf3QykKuF3nfxeNxP1GgA+F4mk3luNpt9cCGQqzOeY1wJgzeBZ0GYCOyW5F1P3Iu7gSbU6VuCJGxOAJwAcQJMSYAqRKtCgtpAoh3oIGCJAJYKCJ9odQpQO4ETVHlim8GjDEpIsAEIBqQDcBngsXYwF0DcBkIKJJIAJeGKJAwjAbLjGAl/N2GzCNZitcOxWKzq1WPm51uW9dFcLvePsyZYXqPdwMxn+5mKowhUMwzDn4w3ZjKZnqgSUarYvHlzGkBvmGqO+ryestPb3d29pVllY4QQfd4EHUo/K+oVCyHmnZ6hp6fnpcx8vb8KXAwT7nxJVqlUAjOTlPK/M5nMUDab3bmYnlM12oslrs4nWeVyGQCWSClvTqfT5+Xz+cMtfutmx1r8S8d6cdpsDzzyMN0EuK8F4ER/14gDHKvUFhRxCIpXclZRAkIkICkFJExQikDtBLGEgKUCWF4hWdRJoISXM6UEUEpWpk2uECsUGTRGwAiBRpOQbrJSaocTgIjDdGJwOA7mOBzE+BMQ9AnIhf4eqwQrFost2KD2mTxnPB5HsVj08xN+PJ1O35TP5x+a0TwbOFnk6RpUQiOlfFmTjF7o7kH1ZVRITlOC3bdu3Rpj5ovDJJSKgvVgNpt9fD7nsizrfGb+oSZXEwiy2gbtUsobt2zZsmYxPaOfkXoxbVpQn8vD6UT0bwvhvtlz9QlTIJ4wpv2QoHEdqxn3yyAQDBAMuGzCgAlCDESVDyMOQhyIEyhFQIqAVEW1QmfFBYiV3g7CdQZotaJsdRDQRhApAhKVDyMBEnGAYgDHICkGKWIgmIibBtph4OMQi8X+xOPxYED4oiVZSmhGjIi+gRm6CidYrmw2+6BlWY8AODMqN2GA+V4B4J+a0IahuwfVzlLcom8E8FEg2hXN6OjoM4moI7gSaSS58gnWfHcPdnd3n4KKi7HdVzUW24Q7n4mamf0qARscx/m6/y5rtDbi8bi6oeiqnp6et/T391/T7Lmkzp8AYPiuwc0XrEbvpeunPdmvvjeEg4+NwDvOQMQuwne9C+ITH0FsWZsZMxIwyRYmMcWEySaBTBDFiMis8CGTQHECJQEkCdRGoCUEWuapWQLAcQl2AYwxkCQgTkCMvOMBwGSGCbDJkkwwTBdsCimM8pgbo0TS2L+/aKIZSl4I8/ZiVa3qPa+Swf7ZlmW9JZfLfWdWClaF9VdqEyolOyKZKDxcvGnTpqVRNlx3d3c3KgUfI5u4FdXo9HQ6/dwmvC99Ne6lYVDVTynlnAnWli1b2oUQN8FLZteMYqGtjlgsVu1DZn6tZVmv1q2ycEiWkrH/a729vac3kVgJb8GdANDmLWiCnxmvxlgyWLKvJBl1zhfq5/e/R8cfdqJtz15ue/oAp04Mc2JsjOPFEsVtm2OuC0NKMpiJGIKYBbEkwTCIWRBgEpAkiGVUIVnJCpmCMeF3zETMQjCTcF2YtkNm2UZstMCJ4WFOHDjEqScPceLhIZm44weIeWST9AhYeLZWESQ+1dXVNW1MXa3Zahu82oCO40SiYilxSbFUKvUiAJEF7Kq1B6PaiWaapq86+MHuv4rUmhL1qWpaWASLmffl8/k/zPU8tm1/C161dr/Qrkbtga+Q2n/dtGnTnXv27DmuW6a14Wft9+KxlkkpPwcg6rAB4U34CVRc8B0eQYlh4g7AGEtMu7qRkuE6LlxXVgmWdNAB4CwAbpQPNjQEse0GrD57i7vyjNPFyjUr5aqly2nFkg63sy0p2pMpTsRi0jRMaRK5AuQYRC7BdQUJh5htIpQAeQKViPYSIB1idojZJUhXsHQBlmBXCsmMcokTxZLbXhiTSwsj0j42LN2jRyUOH5T8+FPSufUOjHq3V/KULEYzgv9bBMxc/fhjwleMWnG8KnP3hlgs9hcAvjwrgpXP5++2LOspAOujchOqxMZ13SuiJFjMfJWfaDOqTg24CV/X1dX1vqGhoVIU1966dWusUChcHNZL7Be+9Z7zlrkaj56enquY+fX+fZ5suwVnuUhALBbzB/6piUTiEwA+oFum9WGaJlzX9XcpvSGTyXwhol2FvmoVQ2VX7prEEjxjdUa8OLWMzjYSvEqYNL5CZ1BiKS0HgCcGj2Pk6ERzxb5qxQzmih0YPlL5zZLT6PyeK41rQdESCSJgbwrm2BFpPOqSufqYY6xexsaqpWyuWgpjRSfMlZ0wEomyEEYRhhgDOaMkjGEYRgoQSRJkgEQJxASJgiHlUQNymKUcgeuMgnmMpVuEK0twbFcePuF2HjrunnHkhOMcOu66h45J59BRt3jwMB/e/xTnBvfixwAGADwN4IRHtOTJRLL899175+vOkb5tE0LAMIyWIF2xWAyO4/j3/TddXV3fnioFUa0ViQTwYwDv9t2EUeSd8QmHVzaHonjhLMs6C8A5UapXqmH1Vq7LY7HYSwHcGMV1R0dHLyCi9rCeWXUPzjX+Kp1Or2Tmr/n/vdCzA0c5UXvk9l2ZTObz2Wx2v26Z1oeiQAop5WcAhL3Zh7xPAsAqow2ZjZcY71u+gV4gYn4yzPrjbfhwEcOHizO+WHIp2rGUzmxK23YA1A5wCnATgG0yyoJRgkRJSpRcRoxLAIoAj8HgAqQcAZAEwQDIAfEwAAKjCMnDgDxOrhwGYxQuj4G5CMklFF02Sq6MlVmiTAzbkHDiEm4bwC6fYRp03oYrzKs79vJvHv+t+9XyMB4EcADA2MlAslzXhW3bM8qz6RMvn4jZtl1VkJpNthTVeXUsFns/gH+oy2vq/P0NtSbMiFSsdel0+vyI1KvI3YO1rhdl6RwhRJ9KakMkWCPlcvmOua086csA1gJYtNnZG79aJ1VtTkkpP6hbZWHAX6F7uKKnpyfsuEyfXK3uXIe+3lcb/7myi146Tq4W0aQuAUcCjmQ4LsN2GGWHUbYZZUei5EgwF8FyDMwFSB4B8wlIPgp2D0PKA3DlfrjyKUj3ANg9BCmPer8ZAfMoGAWAiyjbEmVXouxWrmE7DNshOC6qHxYwV2yivp5XG9/sPB2XA1iHSqmvRRsxzswolUoolUoquXKZ+Q4i+hQzv52IrgbwRmZ+F4APA/h3ANsBHFLPY9s2isViNQ9gsxazytz53qlisWr61Nva2rYXCoWjAJY7jhNJYLFhGNW4JG8FtyOCSekqf3KKmmD513RdF0T08k2bNi2NIm5GLfAcZoJRIvrFXNyemUzmcinlW/z7a4Wgdn9XpBovoA5u38Xsf/yEslHDX9l5ffDuTCbzuWw2e0RTmNZHPB7H2NiYP0Y/COCuEMmVCaAzsQRbnvFC4wuJTloLAGbMwMXPexbO7b0Aq5eeilRsCUwkoDoUGFxJAeWFDjGz8t2zMRjfIMXeBmn1v6vfefwck3/LkDwenuRfh2v8HZghvT/Hr1H5ZqCEpBhF3CggSaNIiDEkjCKSooiEKCEhbCRFGaYAiFyQsAEqgjDqjeFyJW0WAMAByzHAGAXzGJhLYK64ixyZQmd8CWIdJjpXm1jrxFBwTIw4Bo4VXTx1bAy7H3kCxx88BGkz4kto5abLjH8cuMk9OnYUv/aIxKJTsZhZzSEFAEUi+rLrul/zaiBP+7729PScK6W83ItXzgCV+HDHcZpWxUPxQK2Nx+NvBvDtGROsHTt22JZl3QLgT6JyEwoh1CznVwD4VJjX6+3tPdN13fOaoV6pneQpPslkMnklgP8K83qZTCYupQwt/5XqU5dSziW5KEkpP+uTlmbGXc0kTmAmqoRpmpGSrVgs5mcKXyKl/FM0J+1Jyxl5vw9bdWu57/7wNvu8fPPmzacODg4+EYap9RSTdRv7jA/75Grdqavxzre+B2uWjJdI5QltqPwNK5SLAfKCq0ghS1ThYZV/q44f9v67QtDIO+/4b2icJDEgqkFbXL105RiqHu//Xnh/h8B5JGJwhQCTgCsMSDIgYcCFAQcGDLiwYUJwGYKGAQgQMxgOgKIn9Jne9V0wygCPgjEK8HGAh8FcgC0N2Cxgk4ADAUdUrgcRRzyewKqVa3Dh0rNw2jOewl233YvRY2XE22nZhueJj+R/LB8BMIpK0Lu7WMadlNJPhuz/1d1SyjcNDAw8Opvh29/f/wCABwB8Lp1Ov5iIPg7g2QBQKpWakhcx4IH6gDd384wIlocbAPyJP9lEpWJ5BuaCrq6u1UNDQwfDupbjOFf5E1+zVBKVVHpuwv8K+ZLPQmULdtjxV66U8iezPd6yrFcBOLeGDBvZROz7+6cgVcMAngQwAqCAys6rBCqpJFYEVS9fAY7KAKjvFIC3nGwEy+9DnxhPFe8RDKBttitasX+mEOLPAHwyBPXKANC27HSc13kqPRsAOpZ04D3v+Essb6vkqXXh4oTzFMbcY3C4DMnOBBVqglrElb8ZV7Uq04ysKl1yQt+of1a+y4Aqph4/URnzv/tEir0bGP9z/Lv62xSVkTJKSBllJEUZbYaNlHCQNFykDBeOkHANiSSfgGAbRCWACiCZ8tQr31ZKgMtgjIF5FOBhSB5BURLGHBcF18aYLTDqCBRcgTE3hoITh+MugYsEylJgdecpuPQlF+G2H/8WdtHFklPE2Su6cMmRIfkkFlEslu8WVPr6221tbe/esWOHPZ/T5vP5XwC4LZ1O/y8i+hyAdt/zFSXJCiyIetPp9Ivy+fytMyZYbW1ttxYKhVEA7U0gWCIWi10O4H9CbKDIkotO1UnKM/d1d3efMkPZdK4riktrMfAQCNbvBgcHD83B+H9cVfeiXm2Vy+XghCwB/AbArVLK3zHzQ1M9VyaTWSGlvIiIXuAV817vxw24rhtJsH7gndqSTqfPnmlZh4UM13XhOM6sYkZVEuwbzKgVx6D9U8jxn/X19f3j9u3bG5mU0ncPLlmx2XgZiUrcz8tf9nIsb1sDBnCgPIjB0dtR5mJVopogXk0gVphIgLj2b2sexzzOIuocx8r/1b1GlZwhQPrGj4sRo8OUaDdctBsS7Sajw2C0mUC7AZQMQsoklAUhaZYRozEQ2ryKN7EqwWJIgG0wigAX4MgSiq5EwZEouIyCzRhxGaNlxrDDGC0Dww5huEwoyQ6sTKWRMDqwvH0NNp+7Adm794AItPJMuuLIEH4O4CgAe6ETrBrk6t9yudx7GvhcMp/P/2smk7lXSvlTACvVIPio4O8o9OzunwKYOcHasWNHwbKsXwC4ciZR/42W3VDJ6h4Kwdq8efMmKPmVWmTVahDRGwB8KcTL9fmTcKMnETUx7Vx2D3oJMs/1X9woJznHcXx/uo9jAP7Vtu1vDA0N7Zvpebx4p58C+GlfX9+HDxw48AZm/jSAjVJKFItFJBKJ0Am9srICEb0FlaDRRYk6xBiobH/fwcz3E9FYjUNPAXA2KkmGhU+E/dx/zVK1/R1KRHTa008//XwAtzXa5ABoSy2ns31bcH73xWAAo85BZEd+5hGJcfIymSx5DEchNrVIT83fTiBL019j0m9rHhckghOPKzNQchhmxcjCdBgGEcgZdzMyAGkALkvEjRLiVIYBA4QYKlncUcl3BQdSuihLiZJklByJMYdRkIyCwxhzJMZcQskBxlyg6AAlFzjhFDBq78amZc8EgbBxw+nov2cPmIHkcqRR8SwsigSkjuNUxyMz35TP598bBmnMZrP39vT0XMrMvwPQadt2pBnm1ThqAK+sFUdtTnOCbcx8pS+7R0FGlBt+cV9fn9ngFZx/jdc1SykJIhB79uawCJYXf/Uc/5ohqldwXXcu8Vd/3Yw+sW1b3VzBRPTNeDz+4Z07dx6bz3m99/aaLVu2bCuXy18jorf7AZ+pVCpUAukbGc/IvWGxEqxyuRyMkSsDuF5K+c1SqfT7vXv3TptLoLe3d62U8jUA/jczp5m5et5m7GBVxyYzv6LBBMvPfRU3ErwUIKxesQ6pZAfAjCfL/WCWmBiwPgVZChCbmr+tc9yE305Sn1RCphCvaY+r8Vvv+5gUMBwJA4BhAIIYZHj/aFSkalcyHIMQl4SYIJjEMMiB/wowVxKp2sywJaPsMoqSUXQZYw5QcGXlT4dRcAlFBxhzCEWHwBKwuYTh0iEsia1CW2IJ4m0mSqMOzASWoBJmsOB3EvohFh4GDMN4M0IsBdff359Np9PvIKIfMjOVy2Ukk8lIBRI/jjqRSLwOwLcmjOepDo7H47d4RqsZ6RpWHDx48KKQJMymuweDLNjD+b29vVZIlwo1/spXTAAMDAwMDMzmWO+ZL/LJVVSTWoBcDQN4RX9//7vmS65U7Nq1azSfz7+DiKrxNF4QelTj6AxPsV00YGaMjY2pCf8cIvqiEGJDLpd708DAwJ0zIVcAsHv37qf7+/v/vb+/P0NE7wBw2Ld3ATdHZATLt0lE9IowTA4Ag0QlJcPKZWuru/GG7f3VRKFVsuKFQlW++3FNGI958jb1VX8LdXegHw4V+I7Ab5XkpOOxU/5xyj3UPU75LdTdheP37kpgjAXGXIExCYw6hIIDFBxg1AFGHcaIDQw7jGFbYth2MVx2ccJ2caIsxz+29P6dMexIjJQZIzZj1JEolCvnKdgeyXKAolv5+Pc2Zo9AQoIwvomHBPlZ8xc8wVLsqSOE+P+y2exI2NfM5/PXA7jWV7Sj8rjVmK/+ZNJ4nurgnTt3HiOiO5tEsMDMVzT6/Ol0eiMRPTMsojHXTlJWAG8K4xpSyufXauNGTXjKRDRr96Drum+NWr0KrLSOSCkvyeVyPwnrev39/Z8gov/wjYBy7dDHkWEYFy8mcqVu+2bmB5n5ov7+/r+cZ2JV2d/f/19Syi0A7vf7KQoyPEXfbUyn02eHRLIAAAkzVUlrAImyLE4czzzRVaeSniqxwkRiU4v0qKrVRELmJXhQr8G1rzH5vOpxyjUmEbLxa5R8UmULjCkEa8QBRmzGiMMYKXvkyWaccCROlBknHI9o2S6O2xWSdcKWGPZirUZsxki5cp5Ru3LesTKh4BAKNlXVr0o6hzIkS0iWMMio2ScLmVwp5OZL2Wz23gjtwt+jEhYQum2dYrw+r6ur67QZEywP2/zBEwXJUlUlZm54RmOv9iC1EsEKrFrfFMZg8/NfhRF/pahX8Iozz+r9RGW3W2T+c98N5KHIzK8YGBjYFfZ1y+Xy+wE85LdZmCutgKtpURCsYPAsM99kGMaz8vl8w3LmDQwMPNnW1nYpgF/7JCsQnxfpIlMI8YqwbY9PaFy2JwSjq8SmLrGaoHDVJz3jChdPDHgPnncSIVPOq6pmqHVcIC6sBmEbcwUKDmHUJYw65JEixrBNHrECTthcIVZlrpCp0vh/D5dl9c9hmyskq+yTNGDEJozahFEHKDgUIIJ+m0pIZvAiSqDsxzB6eEpK+Q9RXj+fz+8F8B1/8RyliqWMVzJN84pZESwi+jE8H2pUKpYyOZwdZIQNeBGuChK5VoDfScy8KZ1OP7uR5+7q6koQVbZkh5lcFMChbDb7+1kqii9EJcVBZOpVIAvwh/L5/O+iuO7Q0FCJiP4cgAwYpFDHEREtCoKlrpCJ6GbDMK7KZrMNZz87duwoJBKJVwHo98lwVLbP7zd/EcTMl4Y8NUJCerFXNdyBVWIzBbGapHDVJj31XI5V1azq1uO6Lsfxf691XOC8EwjZ+HkLjvBIEGHEFpWPAwzb/scnV5XPcf9Tljhuw/s34IT/ewcVkuV/HGDUFnDlZJJacWFxtb0XCwLj42MDAwPDTSB536i16I+Qr/il/mZOsDzZ/Xd+I0YRkzAVI5wPLMvaAOAC/xqtVIJFJReeitUwxGKxC1HJ1xSKe1AZXD/BLBPlEdEba63cwzQE/v0S0S9yudzXo+zn/v7+e+DVnQx7paUM/J7u7u4lC9mA+5mbPfyuXC6HQq587Ny585gQ4k3w3A5Rq1hK3z0LIbqPKqRDKsRpPnFWE3NS1YzfquNynH2cVR3ChsAORJ4YwuBfY6xKrggjNmG4DE/FAk6UgRMO4XgZOF4GTpSA46UKoTpR5srf+R8b3rEVojXiEEbKAm5dkqoQ2kWUs11ZLD4hhPhOM+7BU7IfiFIM8sUaZe56QSaTic+YYHmDsOomjEJ6UydaL6t7o4zJa9Fi7kG1kxSjevXWrVtjDXzuvlpsu8HqFZh5tu5BAvCiKAmvYghKzPy+JnX3P9VZ+YU1SQsAz1ioxjug9h0RQrxxLmWYZotsNvsgEX3ev4cmrYqXdXd3bw67fZllY+KseLo4K64bnzW7OCuuGWc14d4R2FUYuPeSCww7AiecCsk64X2Gy6KqUh0vw1OtgOPlCuk6YY8TrOEyVf8cLguMOZiWpLIXg4VFomIFhJevhLnwmcG7/MMaC/8oOcsSZn7unAhWlMxQZYRTFVOcJYm5Kiyi0WAVa3WhUHhxA411Xw0S1zBlwUPRMIxbZ3NsT09PDyr5iCLpj4Bi9J+5XO7hZvRzLpe7G8Bg2ONJJaymaW5cqAZcdekS0Tuy2ezjES58/gnA/gA5j5JgQQhxYajkChLSz301nTtwvnFWQP3j5hBnVfu44HknuhzV30oJFGzCCU/NOl4GjjvAiZLA8bKoqFdl9UM4USIct4X3HRguV9yMjsS0JJXBE3IGLgYoc4Bt2/Z/N3kxdkPUXKXG/PXCWREsr3ZQpNKbQrA6TNOcdxxCb2/v6QAu9IkMtWCAYUC5a4ibsKurK8HMF4Wl2imE5c7Zbsll5hfWevYIDEHZMIzPN7m7t/ntF5axVd9xZl6QBEtKqdqcW/r7+38c5fW9d/pLUa+KA4rus0KdlKoqENckPfOKs6pLejBlnBVmGGdV1x04jcsxSAQdWQlKHy4bOFEeJ0/HbeGRLcLxEnkqFuG4R6xGHQFbYvJmgClJKlcUrEUAdUwQ0c/DLG83Q64yAODhwNwUCcFS4iYvmhXBUieEqNyEUwWOzVG9qO4ebHZy0akmRGUH5asymUxHA1Sxi+DFXzVaJVKl4blkb4fnHgySgbANATPftHv37j822TDdWYOkhjaGFirBUlQjl4g+0ox7EEJ8C5W6k5G6CZUxsSVMcjXusgohzkqNnQqmXUC94+qkXZiBy3Fc2KodA6UeV0uZYzAcFyhKqgbDD9tevJYjULAJRZdguwQ51WaAuiTVi8GSi6Omc8B2fb9Fbms7gKbksPPwTHj1lWZNsKIyMoHiq41I19Cw5KJjY2MoFosoFosNX9EqBSvbmfnVDThlX60Jt8GDix3HmVX2di/G7NIaq/VQEOin/2y2BUgmk/eETbACk/SCI1gBxeja/v7+bDPuI5vNHvHDJKLa6BPou7NCbORx15Wyk3A60hOMswJmFmc12R2I+u5AxeUYjLNyHQm7KGGXXDiOrB2fFXQd1kgJUUuZq+dynJAQdc6bATzVerw09YKGMj5luVy+tUXsxvYa9iNKgtXR3d2dAaYplaMil8vttixrEMDmqG7aNE1/BXuWZVlnzTVmxkv18Gx/Mp8vqVB3pUgpG+reCiRafROAa+ZppPsaRSyDUIj2jsHBwSdmc+zo6GiaiDoa0SezNASH161bd3s+n2+qEdi5c+cxy7KeBHBK2ATLe1dXLjTjrS7kpJT/0cx7IaLrAbzZf5eiUMEVgrU2k8l0hJUVe3wXYbAocwjlbSaV0Klf3qZKXiTj6P4Sju0fw/DBMgonbDiliWPGjAmkOk10rIihc20Cy9YmAIOmLDw9qZYiUL9gdc1ailPVYKxdeFr6iiEWh4tQsV1/aLZ7ULmnu/05pdHz83Rzt6+4E9GFAHbNdsatugkjTtcAVIo/z1UVatjuweBzhzE5Ksb7RVu2bFkz1/Ns3LgxCa8ETaNfMjV2iJnnUnvw7BoTSRQE6ydh1LecIx6JUMFqW8AEa3BgYOB3zbyX4eHhnwMoBt6lqFbEBKArLJVQVmORQihvMwOXY3VOCbgcywUHe/5wFPfc8CSydxzAE/3DOHGwNIlcAYBjSwwfLuOph0cx8Jsj2HHT09i74xiKo0791A6KMlZLmaufdHUOmwH846Tijl1EBMsruNwSGBwcfBTA0bBt6xTjFQC2zkrB8oz1Nmb+cFSrOLUQskewvjLHU1Xdg/MlGkHjGkYHGobhTy6m4zivB/C1uZwnmUxeBCBZo/MbSVhgGMZNc+jbXt+Ahb2DMNBnt7eKISCiAxHGCSw4gqVMvr9Ak+ejffv2jVmWdTeAvqiMdmCTwlkAdobSxp6CBQ6qOXVUGeX/plNzahVknnhc4LdguDbj8YeO48ncMKSc2O0xM44z1pyFU1ediVSiHYIExkqjePLwo9j79ADKdrFKuJ5+pIADewpY/Yw2nJbpgBET1WtMKlg9Q2UOPNPi1jV+632XfpvLhU2xVLsqhLivlUwHEe1k5udHSbD8uUxKCSJKz5pg9ff335tOp/cR0WmO40Qikytk49ItW7a079q1a3Q2x3d3d58C4DmNUnGCHeavdBqpwvgxSd653zRXgiWE6AuLxCiD6/FsNjtrw8/MZ/uTSNgKViBX169byBAcjvBaC45gKe+x3Qr3QUS/Yua+MMb8dCtiKeWZocxE4MqED1kjL9VEsqQSiUkEaQrSUZuQ1XY5njhUxsBdB1EcHZ+8O1JL8cKtV+EF570O55z5HCRiqZrPYjtl7N57D+7cuQ233ncdjo4cBDNwYE8BR58o4RkXdKJzdXzi/aikMEis6pClyWSzzm9rHCdZgtldVOqV967uaLHbywJ4flRjtcaiaDMw++rdLIS40W/cKFbfipFJOI7zwjmQldf6z9lggnU8bBXLw4WZTGZO7gG1/mAjCZa6k3SOuwcBz0UYRf4rpX+OejWrWgXlCAd8Chrzfe/vDXPMT6VgEdHacAgW4EUGVReLk9x6jSxvUze1A+PpoVE8dNvTVXLVnuzEX7zy07jpH/bgo2/8Nzwr/YK65MpXt87rei4++Lov4cf/8Ag+dNWXsbxjdYV8lVw8/JujeGqwULPwNE8K1MfUNRgx/u+Y4WaACe7QRbCLUJn/ZbFY3NNi9/ZIkxaD/tf1mzZtWirmMOgjTTqqkiIp5Uvn0NDV2oONCHBX8L2ICBa5rjvrnFhe/NWFjSKWddQrSClnHX/V1dXVCeCM4CQSgSEYbDEj4ATuTytYra2k7Y6SYAXGx6qQXsJK4WHFTVg/fcJ8y9vUSe0AYF9uGIP3HIZ0K7+9uPcK/OBjD+FtL/kI2pOds36sRCyFq/vegx98bDcuv+BNVTL5RHYY+3YP146zCuTJmnkNxhrxWZPIpn+chJRuRcla4DqWYrf+GEVlhVne21DUYzU4n8VisbNmTbBWr179a3iujSgIlqq+zLZsjmVZ6wFc3CiSEZgIbwHwVJgES3nuWROsRCLxbIQff3XCMIztsz0+Ho+fDm/TQRQKVqsSLCKKMiGbA415IZvN/hGech11qgZmDoVgVTiBnJD1PLzyNqhZ3ubAIyN49A9Hq260d778E/jiu2/EqqWnzPv5OttX4JNv+3/46zf8K4SozAFPDxWwf3C0JrGanHaBZxCoP9vNALwoMrkr896jLbgYerTZBIuINs/awG/fvt1Jp9M3EdHbfTdh2CqEYRh+I53e3d29ZWBgYNcMD70SnnuwEfFiakfZtv2gaZr3EdErw+pA5bm7u7u7nzkwMHD/LI6txl+FsYPQw8/nUneKmdfXeiHDIleKMTvLsqzPtdAq63kRkssxTZEawkceAXB+1AoWEa0OdYxA1nSTQSVTE4gVJv7Wb50pj0MgJokxfLiMoXvGydVfXf1VvO7Sv2j4M772ue/C8o5V+NtvvxlSungqN4rUUhNLVsemjbMCaqRdmONmgIqCtbhK5QA42Go3JKXc34xqLQHBYN1cWcc2AG/3E3mFHeweyC9xBYCZEqyrgipYg4jFoaGhoX2WZd0H4JV+TFKj1RglDxiEEG8GcP8sjGaf/+yNfNEakL0d8OoPRkWwFFzkfVoKERkCTbAagz8COL8JE+SqsMYHsxtQc2aQz0phGzzDXFNBQiYdxsBvD1d3Cv7ZFX8fCrnycdl5r8VfXX0Yn7/uPWAAjz0wjPSly2DEaIp8VuMPMTkP1uw3A8iqCiixOBI1AIh2s86MkM/nj1iWVQKQiHKsBuMm58QIisXibQBG/Ak3ClaorORm5CbMZDLrAFxSg1U2gmDt9M57f52JvGGdpdz76+Gl358Op512Wgpe/FWI7kGHiH42x9Osj1AlannrFCbB0gpWw9vz8Sa9G6ElipXs7yScY5wVuH6uqZouxwq32Jc9geJwxXN9ofUi/OkVfxd6e1753Hfipc96S8WAlSSezI/OPc4Kc9sMINkrOr+AVSzVM0BER1vxFgEcaPIcsHZO0tPevXuLlmX9FMDVvqIRxZZlb3J/9tlnn738oYceOjoNGbrSJySNUtiUF+pBALBt+/6wM8YqbsL1lmVdlsvlbpvumKVLlz5bSpnwj2/koFII1m+y2eyR+RKssGOwDMNAW5uO7wYwqpugIYTngDrBhG33wt4F6hXJmRhnhckKTU0X4AzUnNrHAXbRxRP5SmL6ZLwNH33j1yFIRNKHf3n1l3HfwO04dPwpHPljCauf0YZ4G9VV5oJuTa6rzAXbJPBbKIWeF5GLUEpZbNFbG24GwfJzYTHz2vm80ZHuJlRIkuk4zktmYJhep06yDVRuqgrW4ODgISLaE2YbBMjhm2f4wvc18tlrrVoA3DSPU50CjchWmiox0Jh3ex5r0qUNzFDBnuUDBXb5oWaxYqhpF2rVDayj5tSq6cfMeGpwBNKpeATe/IIPYP3KjZE1ZEdqKd7x0r+tEsODjxbGxwrXK26NGvUG57YZYDwOa3GMCSFEq26gaapqP2cXoafe/BRAKSqCFVA6pkzXsGXLljV+AHGj1Svv+07l+/2+ghWBm/A1nvtvOvT5xzZyha3WhhNC3DyPUy0LrM41QiZY8Ha8aszbDh2rZROiwNatWxPhvCMSkt1ZlLdRyBJqu8aC7kCVsEkJHPBITTLehtc//32R9+Mrnv02rOxcBwA49mQZriOnyWfFdfNg8aQ2qU9SJSrkSkIuimLP3jPbLXprzQ6LWDJngjU0NHQCwC99ghW2sQnksXoppkiS6jhO1T3YKAVHib8qrl27Nq/c131hG1yFJHZ2dna+YqrfegTsWTVIaSPboD+bzQ7N41QJTbAiJVeaYDXODp1o1rVd1403/B2pxh1VJv9xVYZnnnZhBmqOT0gYjOFDJZRGK4u1S895FZa2R1+HPG4mcPkFb6zYNYcxfNBWYs8wtzirGdRg9EvlLKZdhETUqg9TbFJ7+O9Ecr4z8LYak29oUMjS6p6engummFga6h4MqDd3qcWCpZQ31VJ4Gv3cfqdJKad0E3Z2dj7HJzCNdA9KKRuRvX0CwdKIlGDt1y3S2NV61JOk4zgNHzcsPVWFZcCth/ruQEXNmfDbadQcn5CceHo8J+Xzz31N0/ry+eddWf0+eshW7ndmylz9zQBTkVRZdRFqhE50xpoxTpUNefMjWLZt3wTA9VWsCAkWUCn+PAldXV2rAVwaUH7mu3JUG+869d/y+fwggHvDbINAstXLM5nMiikmgL5Gk8sggVZJ5RwnqaRWsKIlWET0pG6RhqDcxGvHQ3hLqlncZ1/eZuo4q1pqDriS+8of/1vPurRpjdmz4ZlIJToAAIUTbs1nnm2c1XQktRLfLr0P69EUrv0ba9J1/a+peRGsoaGhgwB+ExXBUmOKmLkmwTJN8zXwiliHoF6VDcPYVuO+rvEbNoJg97hf/qcO+oJt1eA2eDqfz98zn3MJIRLNWFmczASLmf+oW6SxClaUq2EAKJfLDZc9xmsQBhSsGZS3mSrOaio1p3ii0oSrl56KzvYVTetLQ5jYuLa70rajEixrl7dBzbQLdZ55BiRVSk8x1Ah77BSaqWABSDYiSGeb/xARuwm3eqVwgg93dVD1me8kpTzXz2qlhyiXy9cBsANEpOHPrZDLmm7CrVu3tgG4oNHqVWD34M0A5DzPl9IKVuQK1mO6ReYPKaXRrD4UQhRDuIAX5C7H0zUA05a3mVgEeXKc1eQSMuOErFSsmI9TVm1sen+eumpTpV9dhuvwFOVtMNkdOO1mgMkkVXp5sFgTrEW3GKrJ4ed7BiHENnjvX1jkog7BIgAvUv/NKyJ8qXdfDZnA1QB+Zv5Brd94St6tngEOjTErz36JZVkbgv9eKBRCib8KZG+/pQGnjOvhH+nkXMhms0d1izRkdRprFsGKx+OhBO3yNGkXaqYumCbOanJNP3+xCrBX0HkuRZwbjY7U+D1IR05S5iaTyZnEWU29GUB6i3aGVvBDRrMX8u68CVY2m30cwA5/Ig4bAVWqZ8KsHY+fgwa7B5VnKhiGMVXsUehuwgC5fH0N43+J8r2hBMvDWCqVuq0Bp9SFh6OdnPcB2povRIKljuNdu3Y1nGBVyreMxwTVC+6eNs5qEiGr4TpEnXI6rTFGILnOvQM1M73PfDMAJhAyZheudPWIDB9tTX6nSqJBRiAyN2EgDuvMwD+fW4OMzKuhFHJxSzabHan32+Hh4R8DOBEm0VTdhACeW+N+z/bbqJEpGvznIaJf7tixo9CAU5b02A8fyljU7sHGIVL1VTHWZXgbihp9/jnFWaGWOzBQTqZGCR0CIIyKDRstnmh6Z44o92AYqFveZqq0C9NvBphIUiu1F1mvecJfnLQ36br+12JDZmHHcW6ooXaE/gBEtClgLM5tpIKjPgszf3+q3+7bt2+MiG7wjwtrdaYQpws9JUttl54Q1StIKW9u0GlLrbKCXczqldK+/bpFGoaORtqYWRCskNyDmBCDNV3aBZUsTRVn5RMS1Ihlinmhv08e3tv0znzi0B7PrhLIoNnVYJzDZgCWlRgsV6dpiGLstEU1TkNVsAYHB/MAch7ZCv0BFJKxqZaC1Sj1RnmWE8Vi8aczOOSaGseG9eyre3t7q8/f1dWVYOauRj5/gGDJBsVfhTZZaNQc5GDmrG6RhmFFlARL6cNiWO/JuItwijgr5glxVpgizqpepnf/vMmOyo7oQ8efxLGRQ03rSNspY+/+Ss7oWBtNfI5agfozibOacjMAvLaetABa6PbFaNHbbHYR2lIjU33fUB2wEbgJPSzzc0JlMpk4gEyjCEZgAGzbu3fvtAauv7//TmbeFxHBgpTyIv+7YRjd8OLPQlKw7s3lco3KBl6GRqgIjMHdukUaZnuaQrCI6GB4s6UcJ04zjLOa2h3IdTO9g4H2FWb1d394+FdN68v+x+5DseyV7FlqTBFnNbMajNNvBvB3Erpg6S7ocRCYY1t101KzCdZRs2FjlHkbEf2tPyk3ukxLHYIFAGcCOALAgreDrhHXDuyc+/5M5zUi+h6Av/KJZqPbQY0tk1JeCOBa75l76rz885qklTa4uYH9V4xq9VYsnpximdK+7DiOVrAaR1yXR6xc+V9DKnVU2dVWSdEw0d0HjCs24yQCE0jYREIW+G2d4zpXx/FkbhQAcMcDN+Cy817blL68/YHrx2fi5WKcII4/zCT36ITvXOu3rDzv5N8ySbCUiy36Ktai99Ue9UJIXdwS0YGGzf75fP4P8IJpw47DCqg4Z3rXPLeRBENRoA6nUqlfzsIg/k8N9ScUgklEFyp/nWk0wQop/grMfCxotMJ82U/Gj9K2j3t1QzUaM/ZOjdJoK/34ZFjnV7OK1027MAM1Z3LOqNqZ3lNLTSTaKzbqV7tuwtHhA5H3Y7FcwK33VYpyGCahbZk5gzirmdRgxLSbASpj1F1MaRo6WvS+ljd5MXbIbORYBXAjgP/tG/mwVCzVuPmB7kR0bh2Fa05GR2Gh1+/YsWPGCcvy+fxD6XT6QSI6x3EcmKbZcGMshPDJz7kbN25Meu7LaoB7o66nEKxH8/n8Qw18hP1RESwi8q9zHMAQTj7crWlRQ7ExKoKlTtJE9ERo14H0EmCqNQYxQc2pqcrUUXPGxa36x604PYWn8qMo20V8944v4z2v+kyknfjj334LR0cqXteONUZluxDXVuYQTEMxpaIXbJOJv2UpIYWXNX7hLzb8Z13ZaveWyWQ6pJRLolaw1DErhHjabPD5bwDwv/3JOUyC5XcuM/uB3uc1imCo8VNSyu/N4f6uBXCOT9QamfQTqLgJPfITTyaT5wH4PRoYfxYkmQB+3OCX8Gkl1UaoA0AxAg/mcrlLoaHRAIIVZghEDfUKzBwKwWL4xIpr5rNS/phIvCa5DlX3WvC36nNUfrBqQxIHHinAtRnX3fFVvOLZb8cZa86KpAOPjx7Gt3/+Gc8+AEtPjSn3W4NYBQgkgorVFMQqSFLHdxLKBZ+lQbGtq1vt3qSU6xsluMzjHg421ErkcrnfMvMB7+RRPceZqKw/zvHJRwOVm6fy+fyv53D8dxFiEWzVuBPRhV1dXQmvHcJQryCEuLnB97+/1iQSMlrOCGgsLJx99tnL4e0ijDhFA5j5qbCuwSwh/RQN06RdmJSioc6uuVo1/dTjRIywZlMKAFB2Svjsd98NGVHg9+eve29192LnehNmgvybrbsDsnbG9oBqMYPNABJyMZbKWduC99QUghUoT/Zko5dhLhHd5E/QYU6eaqqG7u7ujQCWNaIxffemhx9gDnX3BgcHnwBwZ1ANC4NgAbhI3UEYQvzVsWQyeVeDHyEygqW0x0YE8oZpaMwGtm2fU2cMhm6sEVay2GqaBq6RdmHucVYzqem36hlJJJZUFsR/ePjX+L8//tvQ2/S7t38Zt//hRwAAI05YfkYMMylvUztj++xqMDIzIMcTuy70PIDKXHtmC97bmVGOVZU/KOP34TCuvK2WChJi554mhLiwUY05m+Si0xjHa8JsB0Wpu1DdQdgIth7IYP+z2cSgtRrBUtojtXnz5lM0TdCYx7t0bpRGWzHW7sjISGjJYv3yLSzlrPJZTSwhg8lZz6ep6QcBbDinAyQqY/SaX34R1/zyi6G158/uvRZf2/ZhrzOBtd1xkIE65W142qSrM9oMEDiucqxcFAqWYluXptPplorDUqu8NEvBAjDYcCth2/btCLlkTMDACQCvblRjKorT3nw+f/c8GvoGAIUIVKyNAC6rQbwawsIB3NToezdN89EmECzEYrFuTRM05oHz/XcqYhfh4L59+8bCJFf+mK9V3qZWEs3JZKq+mjNVTb94h4HTzm6rSstf2/YR/OuNH22ou5CZce0vv4RPfecdldgnACueEUOiU0xR3gYzq8E4w6Sr1Xvx/rcYoM41hmFYLXZ7XVGO1Rpz5+F8Pn+44QRraGioBOAnESpYAPAy/+/ms7IMJBf9PuYRhjgwMDAMLzg8DHdp4Dlf30imrhBCO5FI/LzRfbdr164DAA7VIHOhGgEp5VbNETTmgb4oV8TK2HgwbCLHteKswPVdXzOIs1JJB4LHKdfoXBfHup5xkvU/t/0z3vu1yxtSSufwif34yDevxle3fbhKrpadbmLpenNuNRhrZmyvn3R1MUMdB1LKZ7bY7Z0dtXoVWBQ97Ks/YTR86G7CAMHoqPF38yEWEEJ8rwG3eW1Y7RB41s5GPL//giiGffvOnTuPhfQu9kdBsAIrmAs0R9CYC3p7ey0ApwdJe5jkSslNFRrBquwilFXyMYFYBUvE1ImzmuQOBGrGb01M2jnxvMtPi+OULW1Vd+GOwe14w6e34N9v/ticyukUisP4f7d+AVd/qhfbH7zRMwbAyk1xLD89NovyNnOIszpJSqwKIaDsBm8ZgrV169Y2AN2NmhPnMncSUR7wAqNDmNR+5tXOSjqOE4lBagRb9UkQEeWz2ey8jdratWt/sX///gNEtMbPidVo4hDYtdBQw97A2oP1CNbzIs6F9Vx4GW80ZdCYpW14cZ3FTdgrYRDRrvDVKznJ3QXMPO3CpDxYM0ntEEiJ0Lk2hnibwJO7CigVJEr2GP7r55/F9+74CvrOeTUuO+9KnH/W87CkrXb+yLHSCB4Y+g2279yG2x+4HiNjx6v/ZiYIa86KI95JkzK2zzqfVa3nPEkL1/u2lYie2yr3VCgUtgAwmkGwlO/3hUawstnsSDqdvpWIXhlmNvMgwZhPYwZ2D36/Efe4fft2J51OXwfg/T5xaaRkqSQcbZjhVxUlKeVNIQ7Mfr/vwkxK6ysO3nOt6+7u3jowMHC/pgwas8QbfbsTxYJRGddsGMaOUNUyrqRokJInJcackI5gyjxY1V/UIGTjTKTWcepvEx0GNlzYgSOPl3B4bxnsMorlAn5+33fx8/u+C0ECa1ecjlNWPgOdbSsghMDx0cPYf+RxPHX4MbhyYrwrCaBznYllpxsgg+ZU3mZKAskn91pNsa1n9Pb2Wrt37841+56Y+Tn+PNvEHYT3hEawPGwD8ErfWIRhlIIEaz7XUN2DjuNc18AX8Bop5fsBwLZtxOONq4sZJFiNIG9KO+zK5/N7Q5xAdvsvfxQEy7Zt//vLAWiCpTFjpNPpzQAunK+NmSPBemj37t1Phzgdgf2JQd3hV0fNmaxC1ScdtZKVTlKMVCJTVc6BlRviWHZKDEf/WMaJ/Q7soqySwacOP4anDk+dtcKIETrWGOhcb8CI04SgdVWZC+azmkqZU5+DwVoHD9hW13UvB9B0giWE6PPFjCYFuI+1t7fvAkKKwfJwMwAnYCwa3ZBhGLSdg4OD+UadN5vN3gdgIIx2CD7/fI1/IMj/5jBfxkQicS8AO8j8w3pPlFiB/y/k915jkUEI8U7/eyPd/FMZaiX+6taQV/uVRKPszmjX3JRxVhN2INYOjK+X2qFWcLkwCSs3xrHhojacdn4KKzbEkVpuwEyISRntjAQhtUxg6Wkm1vUmcMYzk1i+wYQRoxnEWU0RqH+Sx1nNxrYCeEMrcD5mvqTGvUVJsHb4qY1Csxb5fP6wZVm/AvACx3EaqtyohEKJF5pzYwZ2+V0XQnNcA+DTfhBco4ihEKKh7RoI8r8pzJdx165do5Zl7QBwUdjFwf2J0VtpPcOyrMtyudwvoaExvXq1kpnf5duYiPNfgYhuDfdqDAmpxGLNTM1RSvbNKs5qYgmZycfVKlNDDCSXCCQ7BIBY9bfS8YkYJh3Hdd16Os4qjHnYmzue1d3d3T0wMDDQxPF6Cbwiz1G7B5Vx+/vqPBrydUPdTWgYBhKJBBKJxLyIhhrvMJ/kolM0/rX+MG1kTiwigmma1U8DDftTnvIWNn5dQzkLzQgoBPzD2ixqzHAR8yF4u5TDWCROY4/GhoeHfxPqxFBVcgJpB6ZRc2qmLqiT6X26XFMT0hwgmNi0VkqIym/JoPFEoZi6vM20+ayC7kCukaJBo+7iVbGz72zmvRDRq2vdV5SLIgC3RkKwXNe90ScWUagUDTBo94QRdzQwMPAogN82mmCF1Q5EdDOiEcF/HSYBD0yUqgv1hZlM5hJtGjWmQm9vr8XMH/QXM1HEXwWqKNwVVoLRcQGKvQzucnJ5mxr5rCa69SaTnsnuwJnV9FNdjtPV9JvgqkONhKhT5LOaUdqFGtfQmNq2KiEYf37uuecua9atAHht8J4i5hAjtm3fFQnB8mry3dPKBEuNd0A47kGftFRL57QiyVLvSUp5cxTXLJVKv4FXFDuK4uCmaVYHnZTyq319fSY0NGqgr6/PdF33PwAkmqRegZl/FIkN9Eu3zDfOqkZNv6njrLhufNZ0pCd43oaWtwHXzMKuUR/K+FhSKpXe14x7SKfTL0KEuerqLIpu95Kth0+wPGyrcROtSCyklPKHIRKsHwIotSrZVO5pdGRk5PYorrlnz57jAO6KinQKIVTZ+Lz9+/f/1UIzZFu2bFljWdb3ent7z4RGaHj66ae/AOASn5g3YffgqOM43w/9gsyVKKyq0jR9eZugYlSL9NTL9D4d6QmWqUEt0jOv8jY86/I2GtMjEILx15ZlrY9cvhLiz725tmnuQSL62YR7iopgRaVSzIN5/npgYODJsK6VzWaPAPipb0RbSXoOtMNtYbslAvhBrdV7FCoWEX0qk8lctlCMWE9Pz9W2be8G8AYp5d9psx4OLMt6D4AP+MY6KvUqMA5/NDQ0dCL0a3qZ3CsuQtRw6803zoonHQdFGatV069eNvlxQja9y7F+eRuc1OVtwkQsFvO/dgD4bJTX7u7u3sLMr/EX0lG6B1WRplwu/yRSgpXL5R4GsLsVlZtA1vLrIjCg10RJJubIwG+KeFBeD89NGEWbBCZMU0r5g0wmc06LT/gbLMu63tuAsdp7l95iWdZZ2qw3Ful0+oMAvua/K4lEohmGGgC+HdkCS6oka35xVpgqzqpWeoQ6Nf3quRynjrPS5W2aCdM01Z17b7Us62VRXZuIPu/zGYXoRQJ/3mLm7UNDQ/uiVrBARDf4E3krqVhqUWPHca6P4Ho/AXC01QiWci/SNM2fRHltr/Dz9hoTTGgwDEMlWSullHem0+nntJrB2rRp09Kenp7PAsgDuNKf9H17BuDvtVlv2Ap4STqdvoaIvggvy1I8Ho9sqzczq+//w7lc7q7oyJWr5MEKxlmhRr3B+nFWwYSkPEOXY32yFHTrzTHOSiGCtY7TaAwCau83M5nMuggWoO8host92x5leobAnPWd4L9HRbBCL/48T2Lxy8HBwUNhX29oaKjEzD/wr90qZFNph7s9whMp/DaJ8v0wTVNd6Swnou3pdPojaIEkpJs3b15lWdanE4nEXmb+CICkbzwSiYQaD/SmzZs3pxe70WbmCzKZTE9Y5imdTr9RCLGbiN7s/2UymYw0UDYQNvB1RKSpyCrpUAPXa7kD66QuqBFnNde0CzUJ25zirDA5zop1nFUUCORmXC+lvHHjxo3JsK6XTqf7AHzRX3xG5c6vMV+NMvMNTSFY2Wx2JxHtaSWCFWCe10X4Al7bSmQzsIvypib1xXUATgColl2IArFYTB2QMSL6bDqd/kNPT89Lm9EOPT09F1qW9S3DMB4D8HcAlvmGw8/3FgjUNwzD+NhJYLefK6XMWpa1vaen590e2ZpXkEU6nV7Z09PzPsuydhHRdwGc4U8QqVQq0lVw4L1/cnh4+Bthc9ZxG2SDPc+CQbEpY6BUYjNdnFXNtAs8RdoFnkjyasZZYaZxVrwQ46wWDeULbAq5sK2t7QddXV0N97VnMplXEtFPoez0jTL2KhAzuW1gYGB4UltE2O7bAHwojKLH82SexVKp9OOortvf3/8by7IeBfAM13Uj9xdP0Q4wDKMpBGtoaOiEZVnfAvAB340c1QTnB72Xy2X/vTyHmX9qWdYfAPxnqVT6rrfbMRS+nclknum67quI6FXMnAmuBmslkfVlcE8BfX0mk/mHbDbbv9hYVSKRgG3bqtJ7KTNfysxIp9MHiOj3AB4F8JgQYp/ruk8YhlGwbXsYQCmRSBRKpVKbEKJdCLGWmTcTkcXMlwI4n5mrL5m/86gZ49G2bTUW9HMhbzKRAFyWKAPAWGkM0mMgMZHAGA9PrhsI1MjYXr+m36QM6FMUkK6X6X1ykeU618D0haeD2dtbhlFJqtybyzYqcahyMY3dYrHoL+BfEYvFbj777LNf/9BDDx2d77m3bNnSbtv2P0op3wvA8MlVlIpzUAwQQtRcFEVGsFzX3eZlRYbjOK1ELH4W4gRab6VyLYC/i5pMTNMOQ82shC6l/JoQ4v0ADNu2Iw0uNgwDqVQKtm3DcRx/8jgfwNcTicRXLMv6LTPfysx3x+PxnXM1Elu3bm0rFovnSykvAPAsAH1SynXBxYZhGDAMY8qtxvF4HMViEQCElPLjAF6/2AiW3w5SSjiOM8GNRkRrALxKeX9ARBUlxjO0juNUv09wgSlQqyE0Y9HHzFVDzcz7bNv+j5BtjwRQckt0DMC6UqmIQqGAZCqONnMZhktHwXDmXd6mXgmd2mQpeBwWfXkb6QJuuXJvThknAJQXE8ECKm52n2QBeJHjOA90d3e/fWBg4M65nK+rq6szFou9w7btD8BTnH0yFzW5CsRM3pvNZn/TVII1MDDwe8uy9gNY12zlRlVtotg9WOP61xqG8Xf+JBC131idlHx1IOrdgzXej0d7enpuZObXNkvljMViME0TjuOoRCsGoI+I+ogIjuMgnU7vE0I8JqV8CsCTRDQGYBhecXPvmA4iijHzqagkv9tYKBTWoY5b3p/oZxqk6Wem997l16XT6bPz+fxDWIRQ4zr82EX/M5cJ1M/K7n+aicAq+B/VJIVhmR8AheIRfqh9DaUBYN9jT2HT5jMgyMCq1Gk4XjqEklOAZHcS6ampGNUhPeP8SD2uxm+nuEZNslRT4VpYdQOLx8a/jx1FDsCo1zeLKjoskUigXC77dmqDEOIOy7J+QkT/t7+//1bvmevCsqwNRHQZM78EwBUAlgTtQjMEikCI0Zfq/S5KF6EEcCOAdzfbTag0zkgqlbol6usPDg7m0+n0fUR0QTPjsNQgeynlTc0ejMz8zwCuZGYql8uRqljq5BuLxRCLxeC6bvWjGmwiOo2ZT5vu/Z3OyPtkaq47X/x7rNga8XEAr8MiRy1S5BdRn1igeEJ/VQ3yfIrCh7HQU2zRzlQq9a2wh5g3oQ0fHHBvWXGWeSUZMB7tfxKr1i9FR0cHBMWwPLkOkhmutCvuQ67YCVmNk2IlTsoLNpc8qchyJTs8ey5IjKeBAFf+zbujynklAO+3gXgp305xdXfh+Hkm7GqsZPVqeYoibcbIU97jS/CRh/knqMSgOouNYPmB547jqIuJlzHzyyzLOg7gfgB7AQwTURsztwFoB7ARwGYA7fVU52aKNMq43bt27drrc7lc0wkWmHkbEb3bNy5RZltVDa9Cam7esWNHoUmr8muY+QL/fpqxklZekiPr1q37bT6fb+pgzOVyd6fT6euJ6HU+sWmmwqBO5n4/qZP5TIrA+hO6/xFCNGyiV1UsZr4yk8mcm81md+IkQ1R1AkNUr2whxNt37NgR9g4Pn2AVTjyBncf38W+XbaDnuQ7jgbsG0HPhBixdthTEBAaDQDCIICEAZgiSkN78T+x9JwYkg0mCmKqqE7EEMwEgEEmw5Mr36p0I71xSUZ8IBIZUYql86lQhadIjcuMKV5X0VROltjY/cUvA0b0M6Zne4SflA0f2yN8BGFmMBEtdtBqGEXT1LwXwgpksSH3bGWVVhanmTSVU4V+2b9/utIKChfb29jsLhcIxAMscx2kKwVIVIyHEdc3qJNM0r7Nt+4sATDVWpEkK1k+nekkivqcPG4bxCgAJ27Yjz8o71QCv9776aqwfB0REkSm0iopFUspPAHg1NFoe5XJZdc9/JkJiLFEp2fX0I3e6n+99jXFWYimtLxVc7PzVHiw/NYnVp3QimUpBCMOjRAw1owyzVJSqcVVLqn9y5VJV9UpWqy2PK06y+jfKcYG0EZIhPRLmM0SWHrmT4wFeLU+sbEbxODB2mH1BEKURPvLYr+TnADwBoIhFFoNVa0EYj8er8Uv13Py1FqStsoBSYyYBPFYul6fc8Rspw9mxY4dtWdYtAN7SLDehotocLZVKv2hWR+3ateuAZVm3AriiGW2h+pCbHX+lYnBwcI9lWV8B8NdSyqYpnbMlX74BCf5dFEZLicV6pWVZ5+dyuT9oCtPCk+1E1+AuIvpMlHOEp5SccAvYPfRL9y83XWZ8LrWcTmcJHPljEUf+WNSdFDJKJ/jA3u3u348dxw4AxwDYOEnyyfuK1kKEql4B+PvpYiabsX3thlpqUlSKjaLabIsgoHQ6NnyNz4qjTjqqXK9cLpd/0UovcalU+gwzHwAmbmHXqA3FWBGAT+oWaV0wM8rlsv+fRSHEW7PZbDnq20BFxTo0+jTuyt3g/unhQf6xa6Okeyhku+vAPvIw35q/wf2z4/twG4ADXl9oI9fqfSelql7tyuVy1053TOTSQFtb2y8KhcIogPao1YkAobuu2R3W3t7+40KhMAxgiW3bkcqg/gqame+IoqjsbLBnz57jPT09b2PmnzAzlUolJJNJPcLrrZImqlgvz2Qyz8pms/fqlmk9clUsFtX4jfc0KWbOn8yLAA46JRQf+aX7N2YC/7buXPHC1HLaYsSxgsExzDOhqwaYQI5bxtGxY9x/cJe8rVTAYx6xUtMzaILV4ggkwf4oZuDSjZxg7dixo+C5xl4TtWqjFGU8sG7dujvrRf5H3BY3AHhrlDmxAsWdb2nFl7m/v/9nPT0932Tmd0opUS6Xm5bOYiFAicWCF4t1hW6V1kKpVFLV2C/39/d/u4m34wdFlVFxURWcEg7su0fmAKQAxFHxcGiC1YCpBxUXYBGVdAxjXrs7Sj8sKPjB6kD0GdSb0oHepisPN+ZyuZ/O5LimBLcQ0Q3M/Jood9Cpbjgi+lGrBHUDuAbAW/1OjIJgKfEfLIS4uVVfatM0P2jb9qUAuv2NAAtxt1gU8HfYeH37UsuyLsrlcnfrlmkBCSOgXDHzj/L5/Ida5PZ89cRFxVU1jEp2bE2uGktmpfdxMZ7vihfyO+0Tjmal1IlsgEiJUqnqPT/uuu57ZzyHNeOG4/H4LaVSyQYQi4pgNTu5aD3kcrk7Lct6AsCpUSVgVRSsndls9vFWfbF37do12t3d/RYhxG8AJHxXYTMz37cyfBXLm8g/CeAlulWaPxEFlKtbi8Xin6C1doyx8nE1sQq1nYFF5g70N220+makuY5fJWYSzPy/BgcHn5jxwrcZN71z585jAO4MEp8wocQc7evv7/9tK72fzPw9n/iEHdDdStnbZ4KBgYH7Afy5b5RKpVLkGwIWCvxtzR5e3N3dfbFuleYaZ6VUCADcaNv2K/fu3duq2/Q4oLboT2M/C1q1CtoaFYt1M1Jgvvl2Pp//7myOF03soG2+EQqbZKmkQgjxgxZbPcIwjGvUFzXs1YbSLjcvhJc8l8v9DzN/so4ioFFvcHu1PzWas6pX3YIArlm7du1Vzd65rKERBsEKKj2LYXGk5qoD8LuxsbH3zNoGN7GDbvSJTtgEq1Xdgz6y2eyDAB7y7zVM8qAE+u/L5/MLJl9SPp//JIAv1FEGTnpIKTE2Nqa+68eI6Hu6ZaJHuVwOLgK+nsvl3tpCcZ8aGo0kWKP+3BK2QBAVbNtWY5Uftm371XNRnptGsLLZ7H4i+j0wKXlXw6E01CPZbPa+Fu3T0HNiBQL9b8YCk6tzudyHmfkzKskKFN086eCvtALb/38L4Nz+/v4f6qkg2r4olUrqO1kkor/I5XLvwSLP0q1xUr/3XwBw0CcmzayvG8IYfsQwjBcMDQ0dnMv5mhotLKXcpj5YWCt75dzXtWrH2rb9XYSs6AWUvJsX4gDI5/N/C+A98Kqw11ALThrYto2xsTHVGLhE9Kk1a9b05XK5x7Tpjw6O4wQVxCEiek5/f/+/69bRWMwQQjxNRK9FJfUESqXSgiRZUkoUi0X13vuFEJft3r37j3Num1YhWGEpEYHztizBGhoa2sfM2yMiWCPlcvmOhTqgc7nc14noJf6qyXXdINFY1CqJP5kH5Pi7hBDP7u/v/3gUrijHcXSWfeXdC8Sf/NC27a39/f0P6OlXYzEi4CJM9Pf338XMb/MXvgEVaEEsVgOpVO5IJBIXz3eXfVMJ1uDg4B4AOyMiFdlcLre7xVcC16iTaBgM3Rscv1jowbb9/f23G4axlZmrRNFXsxZjbJbvCvQnc4XYDDHz63K53PPCdn8nEgkGMOLfj2+UfGN6MpEtP4g9oJ7uBXBlLpe7utWqI2hohGibEgCQz+e/R0TvhOeJKZfLLR+T5Y9j5T4lEX123bp1L/GyHcxvTm+BzqnuJmz0xBgIGL+u1V/Ucrl8PSpZfhtOONW2YOabFsPA3r179x/z+fwLAbwXlbIT1QETkHoX9EReKpVqKXSPEtH7hRCZfD5/fRT3ks1my6VS6TRm/hAR7fHHreu6VfJXKpVg23YkKUeaTawUe1Vg5o8PDw/35HK5bXrK1TjJIJSF77eZ+WpUstZXF2GttuitM44fBfCS/v7+v2mUF6DpBIuIQiv+rHaqEKLlCZa36r0pLII1/tX96SIa3JzL5f6vEKIbwP/zV09+9t2FRrRUwlIoFGrFM9xDRFfncrmz+vv7vxZ1oeA9e/Ycz+fzX+rv7z+LmV9JRNcDKKjvmW9UfQPmB74uVMLll2ryCaRiV2wA3wHQk8/nP7Vv374xPddqnOzI5/PXCyEuRUXRrdriQNqDpthWP241MI5LAL7Q1tbWm8vlftlQftMKHWJZ1iCAs4gIqVSqYY2p+FTvz+VyFyyElzOdTr/cD0CPx+MNy45bKFTnwLtyudzzFuvg7u3ttRzH+SsiejMq9dR8Il8timwYRkvVzpJSwnXdar62GkRklJlvZOZ/GxgY+G2rtfnWrVvbRkdHXyqEuJKZXwxg1RQLKhiGASFEtU9asY6ZX3usDjE8BuAbrut+bTZZnTU0QpxD/w7ApwEglUqFPqaYGWNj1fXER3K53OeDvzn33HOXlUqlLwJ4u8o1iAimaVbtcJj36ofb+PY1AJuIriWij4dV0aRVcttvA/DX/hbJRjWssm39+wtloLS3t/+iUCgcBLA6jC2vCyF7+3ywe/fuHIB3dHV1fSwej3+Amd8JoMNXhlzXrU7s6ifKSd6ftH1iVUfZcQHcAeAaIcQN2Wx2pFXbfMeOHQUA13sfkclkzpZSPp+ILmPm5wFYGjR4QdKl9kPUxMsntWpB1zp9spOI/ouIvt3K/aGh0QrwYpj+1LKsbxLRJ5j5JaqSZNt2dbyri665kC7fnvrz/hSLVTDzASL6b9u2vzY0NLQvzDZoFQXrIgC/D4vEGoaxYT5bLaNGOp3+KhG9LyRG353P5wdPlkHe1dXVaZrmy4noKgCXA0hOpayoA3y+g10l+lMNeAXDAH5FRLc5jnP9IlFHxObNmzcbhnEBM19ARBcAOLdeP9Tql2A/qH/OpG+U2MOaxniqQwHcC+B613Wv9zblaGhoBWsGClaNe+wFcDWAKwFkZjru643nWmN7Chwhop9LKa9rb2//+Y4dOyKJvm8VbZ7S6fQ9QoiVIbwID+ZyuSsX0mDp7u5+pmEY3w+hLR7P5XLPP1mNUHd39xIiejkRvYqZLyai02b9otYY9P5ETUSzjTMaA3A/M/+SmW9fv379PSdDtu+tW7fGisXiWczcy8y9nrE9G8AmAEYTb81BpaLC3cx8j+M4t4e9wtXQOFkIVsAWd3u2+GIAFwI4pcG3eJiZ7yOi3wohtmez2d/DSyERKbHRr6bGyYrNmzefKoS4EMCziehZADYDWBfS5Z4GsAvAA8z8oBDiwTVr1gzo8inj2LhxY7Kjo+MZjuOcAWADEZ0BYAOAjQBWM/NyIlqB+Yc2HAbwmP8hokeZeWdbW9v9nrtTQ0MTrBAJVhC9vb2nu677TGW8n+GRrhgRLQtc+zgqSU2HmblARMeZ+READxuGMQRgKJvNHmmFftEES0MjMMknk8kziGgDgDOI6AxmThHRUgBxZm4H0AYg4R0ygspusgIRlaSURSJ6goieZObHhRBPHj9+/Am9w6xx6O7uXmKa5nIAywEkpJSdyj8niKhNSimJ6LjXJwVmHmFmO5lMPr1r165R3YoammC1DsFarDB1E2hojMMr6DnofTRaEAMDA8OoxKs9rltDQ0OjVSF0E2hoaGhoaGhoaIKloaGhoaGhoaEJloaGhoaGhoaGJlgaGhoaGhoaGhqaYGloaGhoaGhoaIKloaGhoaGhoaEJloaGhoaGhoaGhiZYGhoaGhoaGhqaYGloaGhoaGhoaIKloaGhoaGhoaGhCZaGhoaGhoaGhiZYGhoaGhoaGhqaYGloaGhoaGhoaIKloaGhoaGhoaGhCZaGhoaGhoaGhiZYGhoaGhoaGhqaYGloaGhoaGhoaGiCpaGhoaGhoaGhCZaGhoaGhoaGhiZYGhoaGhoaGhoammBpaGhoaGhoaGiCpaGhoaGhoaGhCZaGhoaGhoaGhoYmWBoaGhoaGhoammBpaGhoaGhoaGiCpaGhoaGhoaGhCZaGhoaGhoaGhoYmWBoaGhoaGhoammBpaGhoaGhoaGiCpaGhoaGhodHCYOaxZl2biMZ0D2iCpaGhoaGhsRhxWCFbURC66ncp5SHd/JpgaWhoaGhoLEbs8L+4rhv6xdRrMPMO3fyaYGloaGhoaCw65PP53QAGAMBxnFBVLGaGbdv+f2YHBgYGdQ/UhqmbQENDQ0NDY0GDiehjzPx9ZsbY2BhM04RhGCCihhEr13XhOI76dx8DwLr5a4N0E2hoaGhoaCx8WJb1aQB/G9Hc/ulcLvcx3er1Yegm0NDQ0NDQWPg4dOjQnatXr74fQBeAU0O6zA5mflc+n/+GbvGpoRUsDQ0NDQ2NRYZMJrPOdd1zhBCrpJTt8zxdGcBhKeUfBgcHn9CtOzP8/4NCQHD2vkMDAAAAJXRFWHRkYXRlOmNyZWF0ZQAyMDI0LTA3LTE2VDAwOjU0OjMzKzAwOjAwCe/NWAAAACV0RVh0ZGF0ZTptb2RpZnkAMjAyNC0wNy0xNlQwMDo1NDozMyswMDowMHiydeQAAAAASUVORK5CYII=;imageBackground=none;" parent="1" vertex="1">
          <mxGeometry x="117" y="277" width="600" height="189" as="geometry" />
        </mxCell>
      </root>
    </mxGraphModel>
  </diagram>
</mxfile>
